<mxfile host="65bd71144e">
    <diagram name="Manus Session评估工作流程图" id="optimized_session_workflow">
        <mxGraphModel dx="728" dy="344" grid="1" gridSize="10" guides="1" tooltips="1" connect="1" arrows="1" fold="1" page="1" pageScale="1" pageWidth="2000" pageHeight="1400" math="0" shadow="0">
            <root>
                <mxCell id="0"/>
                <mxCell id="1" parent="0"/>
                <mxCell id="flow7" style="edgeStyle=orthogonalEdgeStyle;rounded=0;orthogonalLoop=1;jettySize=auto;html=1;exitX=0.5;exitY=1;exitDx=0;exitDy=0;exitPerimeter=0;entryX=0.5;entryY=0;entryDx=0;entryDy=0;strokeWidth=3;strokeColor=#333333;" parent="1" source="evaluation_result" target="final_score" edge="1">
                    <mxGeometry relative="1" as="geometry">
                        <Array as="points">
                            <mxPoint x="970" y="960"/>
                            <mxPoint x="680" y="960"/>
                        </Array>
                    </mxGeometry>
                </mxCell>
                <mxCell id="input_layer" value="" style="rounded=1;whiteSpace=wrap;html=1;fillColor=#e1d5e7;strokeColor=#9673a6;strokeWidth=2;dashed=1;opacity=50;" parent="1" vertex="1">
                    <mxGeometry x="330" y="200" width="800" height="120" as="geometry"/>
                </mxCell>
                <mxCell id="processing_layer" value="" style="rounded=1;whiteSpace=wrap;html=1;fillColor=#dae8fc;strokeColor=#6c8ebf;strokeWidth=2;dashed=1;opacity=50;" parent="1" vertex="1">
                    <mxGeometry x="330" y="360" width="800" height="180" as="geometry"/>
                </mxCell>
                <mxCell id="evaluation_layer" value="" style="rounded=1;whiteSpace=wrap;html=1;fillColor=#d5e8d4;strokeColor=#82b366;strokeWidth=2;dashed=1;opacity=50;" parent="1" vertex="1">
                    <mxGeometry x="330" y="580" width="800" height="150" as="geometry"/>
                </mxCell>
                <mxCell id="tools_layer" value="" style="rounded=1;whiteSpace=wrap;html=1;fillColor=#fff2cc;strokeColor=#d6b656;strokeWidth=2;dashed=1;opacity=50;" parent="1" vertex="1">
                    <mxGeometry x="1180" y="200" width="160" height="870" as="geometry"/>
                </mxCell>
                <mxCell id="auto_planning_layer" value="" style="rounded=1;whiteSpace=wrap;html=1;fillColor=#f8cecc;strokeColor=#b85450;strokeWidth=2;dashed=1;opacity=50;" parent="1" vertex="1">
                    <mxGeometry x="330" y="780" width="800" height="140" as="geometry"/>
                </mxCell>
                <mxCell id="pv_data" value="&lt;font style=&quot;font-size: 16px;&quot;&gt;PV数据&lt;/font&gt;" style="strokeWidth=2;html=1;shape=mxgraph.flowchart.stored_data;whiteSpace=wrap;fillColor=#e1d5e7;strokeColor=#9673a6;fontSize=12;fontStyle=1;" parent="1" vertex="1">
                    <mxGeometry x="380" y="230" width="150" height="60" as="geometry"/>
                </mxCell>
                <mxCell id="session_raw_data" value="&lt;font style=&quot;font-size: 16px;&quot;&gt;原始Session数据&lt;/font&gt;" style="strokeWidth=2;html=1;shape=mxgraph.flowchart.stored_data;whiteSpace=wrap;fillColor=#e1d5e7;strokeColor=#9673a6;fontSize=12;fontStyle=1;" parent="1" vertex="1">
                    <mxGeometry x="630" y="230" width="180" height="60" as="geometry"/>
                </mxCell>
                <mxCell id="session_rewrite" value="&lt;font style=&quot;font-size: 16px;&quot;&gt;Session行为改写&lt;/font&gt;" style="rounded=1;whiteSpace=wrap;html=1;fillColor=#dae8fc;strokeColor=#6c8ebf;fontSize=12;fontStyle=1;shadow=1;" parent="1" vertex="1">
                    <mxGeometry x="480" y="390" width="160" height="60" as="geometry"/>
                </mxCell>
                <mxCell id="session_behavior_data" value="&lt;font style=&quot;font-size: 16px;&quot;&gt;Session行为数据&lt;/font&gt;" style="strokeWidth=2;html=1;shape=mxgraph.flowchart.stored_data;whiteSpace=wrap;fillColor=#dae8fc;strokeColor=#6c8ebf;fontSize=12;fontStyle=1;" parent="1" vertex="1">
                    <mxGeometry x="480" y="470" width="160" height="60" as="geometry"/>
                </mxCell>
                <mxCell id="intent_recognition" value="&lt;font style=&quot;font-size: 16px;&quot;&gt;用户意图识别&lt;/font&gt;" style="rounded=1;whiteSpace=wrap;html=1;fillColor=#d5e8d4;strokeColor=#82b366;fontSize=12;fontStyle=1;shadow=1;" parent="1" vertex="1">
                    <mxGeometry x="380" y="630" width="150" height="60" as="geometry"/>
                </mxCell>
                <mxCell id="llm_evaluation" value="&lt;font style=&quot;font-size: 16px;&quot;&gt;LLM评估Session&lt;/font&gt;" style="rounded=1;whiteSpace=wrap;html=1;fillColor=#d5e8d4;strokeColor=#82b366;fontSize=12;fontStyle=1;shadow=1;" parent="1" vertex="1">
                    <mxGeometry x="630" y="630" width="180" height="60" as="geometry"/>
                </mxCell>
                <mxCell id="evaluation_result" value="&lt;font style=&quot;font-size: 16px;&quot;&gt;session评估结果&lt;/font&gt;" style="strokeWidth=2;html=1;shape=mxgraph.flowchart.stored_data;whiteSpace=wrap;fillColor=#d5e8d4;strokeColor=#82b366;fontSize=12;fontStyle=1;" parent="1" vertex="1">
                    <mxGeometry x="880" y="630" width="180" height="60" as="geometry"/>
                </mxCell>
                <mxCell id="discard_module" value="&lt;font style=&quot;font-size: 16px;&quot;&gt;抛弃模块&lt;/font&gt;" style="rounded=1;whiteSpace=wrap;html=1;fillColor=#fff2cc;strokeColor=#d6b656;fontSize=11;fontStyle=1;" parent="1" vertex="1">
                    <mxGeometry x="1200" y="390" width="110" height="50" as="geometry"/>
                </mxCell>
                <mxCell id="image_parser" value="&lt;font style=&quot;font-size: 16px;&quot;&gt;图片解析模块&lt;/font&gt;" style="rounded=1;whiteSpace=wrap;html=1;fillColor=#fff2cc;strokeColor=#d6b656;fontSize=11;fontStyle=1;" parent="1" vertex="1">
                    <mxGeometry x="1200" y="460" width="110" height="50" as="geometry"/>
                </mxCell>
                <mxCell id="need_tracing" value="&lt;font style=&quot;font-size: 16px;&quot;&gt;溯源需求判断&lt;/font&gt;" style="rounded=1;whiteSpace=wrap;html=1;fillColor=#fff2cc;strokeColor=#d6b656;fontSize=11;fontStyle=1;" parent="1" vertex="1">
                    <mxGeometry x="1200" y="790" width="110" height="50" as="geometry"/>
                </mxCell>
                <mxCell id="search_apis" value="&lt;font style=&quot;font-size: 16px;&quot;&gt;搜索API调用&lt;/font&gt;" style="rounded=1;whiteSpace=wrap;html=1;fillColor=#fff2cc;strokeColor=#d6b656;fontSize=11;fontStyle=1;" parent="1" vertex="1">
                    <mxGeometry x="1200" y="850" width="110" height="50" as="geometry"/>
                </mxCell>
                <mxCell id="multimedia_parser" value="&lt;font style=&quot;font-size: 16px;&quot;&gt;富媒体解析&lt;/font&gt;" style="rounded=1;whiteSpace=wrap;html=1;fillColor=#fff2cc;strokeColor=#d6b656;fontSize=11;fontStyle=1;" parent="1" vertex="1">
                    <mxGeometry x="1200" y="910" width="110" height="50" as="geometry"/>
                </mxCell>
                <mxCell id="accuracy_tracing" value="&lt;font style=&quot;font-size: 16px;&quot;&gt;准确性溯源&lt;/font&gt;" style="rounded=1;whiteSpace=wrap;html=1;fillColor=#f8cecc;strokeColor=#b85450;fontSize=12;fontStyle=1;shadow=1;" parent="1" vertex="1">
                    <mxGeometry x="360" y="820" width="130" height="60" as="geometry"/>
                </mxCell>
                <mxCell id="competitor_compare" value="&lt;font style=&quot;font-size: 16px;&quot;&gt;竞品对比&lt;/font&gt;" style="rounded=1;whiteSpace=wrap;html=1;fillColor=#f8cecc;strokeColor=#b85450;fontSize=12;fontStyle=1;shadow=1;" parent="1" vertex="1">
                    <mxGeometry x="560" y="820" width="130" height="60" as="geometry"/>
                </mxCell>
                <mxCell id="landing_page" value="&lt;font style=&quot;font-size: 16px;&quot;&gt;落地页解析&lt;/font&gt;" style="rounded=1;whiteSpace=wrap;html=1;fillColor=#f8cecc;strokeColor=#b85450;fontSize=12;fontStyle=1;shadow=1;" parent="1" vertex="1">
                    <mxGeometry x="760" y="820" width="130" height="60" as="geometry"/>
                </mxCell>
                <mxCell id="gsb_analysis" value="&lt;font style=&quot;font-size: 16px;&quot;&gt;GSB分析&lt;/font&gt;" style="rounded=1;whiteSpace=wrap;html=1;fillColor=#f8cecc;strokeColor=#b85450;fontSize=12;fontStyle=1;shadow=1;" parent="1" vertex="1">
                    <mxGeometry x="950" y="820" width="130" height="60" as="geometry"/>
                </mxCell>
                <mxCell id="final_score" value="&lt;font style=&quot;font-size: 16px;&quot;&gt;最终评分结果&lt;/font&gt;" style="rounded=1;whiteSpace=wrap;html=1;fillColor=#e6e6e6;strokeColor=#000000;fontSize=14;fontStyle=1;shadow=1;" parent="1" vertex="1">
                    <mxGeometry x="580" y="1040" width="200" height="80" as="geometry"/>
                </mxCell>
                <mxCell id="separator1" value="" style="endArrow=none;dashed=1;html=1;dashPattern=1 3;strokeWidth=3;strokeColor=#666666;" parent="1" edge="1">
                    <mxGeometry width="50" height="50" relative="1" as="geometry">
                        <mxPoint x="190" y="760" as="sourcePoint"/>
                        <mxPoint x="1170" y="760" as="targetPoint"/>
                    </mxGeometry>
                </mxCell>
                <mxCell id="input_label" value="数据输入层" style="text;html=1;align=left;verticalAlign=middle;resizable=0;points=[];autosize=1;strokeColor=none;fillColor=none;fontSize=14;fontStyle=1;fontColor=#9673a6;" parent="1" vertex="1">
                    <mxGeometry x="340" y="210" width="80" height="25" as="geometry"/>
                </mxCell>
                <mxCell id="processing_label" value="数据处理层" style="text;html=1;align=left;verticalAlign=middle;resizable=0;points=[];autosize=1;strokeColor=none;fillColor=none;fontSize=14;fontStyle=1;fontColor=#6c8ebf;" parent="1" vertex="1">
                    <mxGeometry x="340" y="370" width="80" height="25" as="geometry"/>
                </mxCell>
                <mxCell id="evaluation_label" value="意图识别与评估层" style="text;html=1;align=left;verticalAlign=middle;resizable=0;points=[];autosize=1;strokeColor=none;fillColor=none;fontSize=14;fontStyle=1;fontColor=#82b366;" parent="1" vertex="1">
                    <mxGeometry x="340" y="590" width="120" height="25" as="geometry"/>
                </mxCell>
                <mxCell id="tools_label" value="&lt;font style=&quot;font-size: 20px;&quot;&gt;Tools&lt;/font&gt;" style="text;html=1;align=center;verticalAlign=middle;resizable=0;points=[];autosize=1;strokeColor=none;fillColor=none;fontSize=14;fontStyle=1;fontColor=#D6B656;" parent="1" vertex="1">
                    <mxGeometry x="1220" y="202.5" width="70" height="40" as="geometry"/>
                </mxCell>
                <mxCell id="auto_planning_label" value="Manus自主规划层" style="text;html=1;align=left;verticalAlign=middle;resizable=0;points=[];autosize=1;strokeColor=none;fillColor=none;fontSize=14;fontStyle=1;fontColor=#b85450;" parent="1" vertex="1">
                    <mxGeometry x="340" y="790" width="120" height="25" as="geometry"/>
                </mxCell>
                <mxCell id="workflow_type1" value="&lt;font style=&quot;font-size: 20px;&quot;&gt;固定工作流&lt;/font&gt;" style="text;html=1;align=left;verticalAlign=middle;resizable=0;points=[];autosize=1;strokeColor=none;fillColor=none;fontSize=12;fontStyle=2;fontColor=#666666;" parent="1" vertex="1">
                    <mxGeometry x="210" y="723" width="120" height="40" as="geometry"/>
                </mxCell>
                <mxCell id="workflow_type2" value="&lt;font style=&quot;font-size: 20px;&quot;&gt;自主规划流&lt;/font&gt;" style="text;html=1;align=left;verticalAlign=middle;resizable=0;points=[];autosize=1;strokeColor=none;fillColor=none;fontSize=12;fontStyle=2;fontColor=#666666;" parent="1" vertex="1">
                    <mxGeometry x="210" y="763" width="120" height="40" as="geometry"/>
                </mxCell>
                <mxCell id="flow1" style="edgeStyle=orthogonalEdgeStyle;rounded=0;orthogonalLoop=1;jettySize=auto;html=1;exitX=0.5;exitY=1;exitDx=0;exitDy=0;exitPerimeter=0;entryX=0.5;entryY=0;entryDx=0;entryDy=0;strokeWidth=2;strokeColor=#6c8ebf;" parent="1" source="pv_data" target="session_rewrite" edge="1">
                    <mxGeometry relative="1" as="geometry"/>
                </mxCell>
                <mxCell id="flow2" style="edgeStyle=orthogonalEdgeStyle;rounded=0;orthogonalLoop=1;jettySize=auto;html=1;exitX=0.5;exitY=1;exitDx=0;exitDy=0;exitPerimeter=0;entryX=0.5;entryY=0;entryDx=0;entryDy=0;strokeWidth=2;strokeColor=#6c8ebf;" parent="1" source="session_raw_data" target="session_rewrite" edge="1">
                    <mxGeometry relative="1" as="geometry"/>
                </mxCell>
                <mxCell id="flow3" style="edgeStyle=orthogonalEdgeStyle;rounded=0;orthogonalLoop=1;jettySize=auto;html=1;exitX=0.5;exitY=1;exitDx=0;exitDy=0;entryX=0.5;entryY=0;entryDx=0;entryDy=0;entryPerimeter=0;strokeWidth=2;strokeColor=#6c8ebf;" parent="1" source="session_rewrite" target="session_behavior_data" edge="1">
                    <mxGeometry relative="1" as="geometry"/>
                </mxCell>
                <mxCell id="flow4" style="edgeStyle=orthogonalEdgeStyle;rounded=0;orthogonalLoop=1;jettySize=auto;html=1;exitX=0.5;exitY=1;exitDx=0;exitDy=0;exitPerimeter=0;entryX=0.5;entryY=0;entryDx=0;entryDy=0;strokeWidth=2;strokeColor=#82b366;" parent="1" source="session_behavior_data" target="intent_recognition" edge="1">
                    <mxGeometry relative="1" as="geometry"/>
                </mxCell>
                <mxCell id="flow5" style="edgeStyle=orthogonalEdgeStyle;rounded=0;orthogonalLoop=1;jettySize=auto;html=1;exitX=1;exitY=0.5;exitDx=0;exitDy=0;entryX=0;entryY=0.5;entryDx=0;entryDy=0;strokeWidth=2;strokeColor=#82b366;" parent="1" source="intent_recognition" target="llm_evaluation" edge="1">
                    <mxGeometry relative="1" as="geometry"/>
                </mxCell>
                <mxCell id="flow6" style="edgeStyle=orthogonalEdgeStyle;rounded=0;orthogonalLoop=1;jettySize=auto;html=1;exitX=0.5;exitY=1;exitDx=0;exitDy=0;entryX=0.5;entryY=0;entryDx=0;entryDy=0;entryPerimeter=0;strokeWidth=2;strokeColor=#82b366;" parent="1" source="llm_evaluation" target="evaluation_result" edge="1">
                    <mxGeometry relative="1" as="geometry"/>
                </mxCell>
                <mxCell id="tool_flow1" style="rounded=0;orthogonalLoop=1;jettySize=auto;html=1;exitX=0;exitY=0.5;exitDx=0;exitDy=0;entryX=1;entryY=0.3;entryDx=0;entryDy=0;strokeWidth=3;strokeColor=#d6b656;dashed=1;" parent="1" source="discard_module" target="session_rewrite" edge="1">
                    <mxGeometry relative="1" as="geometry"/>
                </mxCell>
                <mxCell id="tool_flow2" style="edgeStyle=orthogonalEdgeStyle;rounded=0;orthogonalLoop=1;jettySize=auto;html=1;exitX=0;exitY=0.5;exitDx=0;exitDy=0;entryX=1;entryY=0.7;entryDx=0;entryDy=0;strokeWidth=3;strokeColor=#d6b656;dashed=1;" parent="1" source="image_parser" target="session_rewrite" edge="1">
                    <mxGeometry relative="1" as="geometry"/>
                </mxCell>
                <mxCell id="title" value="Manus Session评估工作流程图" style="text;html=1;align=center;verticalAlign=middle;resizable=0;points=[];autosize=1;strokeColor=none;fillColor=none;fontSize=18;fontStyle=1;fontColor=#333333;" parent="1" vertex="1">
                    <mxGeometry x="620" y="150" width="220" height="30" as="geometry"/>
                </mxCell>
                <mxCell id="2" value="&lt;font style=&quot;font-size: 16px;&quot;&gt;竞品API&lt;/font&gt;" style="rounded=1;whiteSpace=wrap;html=1;fillColor=#fff2cc;strokeColor=#d6b656;fontSize=11;fontStyle=1;" parent="1" vertex="1">
                    <mxGeometry x="1200" y="970" width="110" height="50" as="geometry"/>
                </mxCell>
                <mxCell id="4" style="rounded=0;orthogonalLoop=1;jettySize=auto;html=1;exitX=0.438;exitY=0.986;exitDx=0;exitDy=0;exitPerimeter=0;strokeWidth=3;strokeColor=#333333;" parent="1" source="auto_planning_layer" edge="1">
                    <mxGeometry relative="1" as="geometry">
                        <mxPoint x="980" y="680" as="sourcePoint"/>
                        <mxPoint x="680" y="1040" as="targetPoint"/>
                    </mxGeometry>
                </mxCell>
                <mxCell id="11" style="edgeStyle=orthogonalEdgeStyle;rounded=0;orthogonalLoop=1;jettySize=auto;html=1;exitX=0;exitY=0.75;exitDx=0;exitDy=0;strokeWidth=3;strokeColor=#d6b656;dashed=1;" parent="1" source="tools_layer" edge="1">
                    <mxGeometry relative="1" as="geometry">
                        <mxPoint x="1210" y="495" as="sourcePoint"/>
                        <mxPoint x="1130" y="853" as="targetPoint"/>
                    </mxGeometry>
                </mxCell>
            </root>
        </mxGraphModel>
    </diagram>
</mxfile>
